# xmcd CD Database Entry
#
# Track frame offsets:
# 150
# 13188
# 30592
# 55355
# 72274
# 86940
# 105191
# 136373
# 152227
# 168735
# 194261
# 235774
# 253508
# 268971
# 282280
# 293943
#
# Disc length: 4142 seconds
#
# Revision: 1
# Processed by: cddbd v1.5.1PL0 Copyright (c) Steve Scherf et al.
# Submitted via: tcd 2.0b
#
DISCID=ed102c10
DTITLE=Robert Bonfiglio - Master of the Harmonica (II)
DYEAR=1900
DGENRE=
TTITLE0=The Swan
TTITLE1=Cavatina
TTITLE2=Fleur D'Ennui
TTITLE3=Falling in Love
TTITLE4=Time in A Bottle
TTITLE5=Troubland Bolero
TTITLE6=Mahna De Carnival - Live
TTITLE7=Mahna De Carnival
TTITLE8=Never My Love
TTITLE9=Street Song
TTITLE10=RB's Blue
TTITLE11=What Now My Love
TTITLE12=Devorab's Theme
TTITLE13=Send In The Clowns
TTITLE14=Prelude Op.28, No.4
TTITLE15=My Love
EXTD=CRCD-1218 US$22.00
EXTT0=
EXTT1=
EXTT2=
EXTT3=
EXTT4=
EXTT5=
EXTT6=
EXTT7=
EXTT8=
EXTT9=
EXTT10=
EXTT11=
EXTT12=
EXTT13=
EXTT14=
EXTT15=
PLAYORDER=
